HIERARCHY
ROOT root
{
	OFFSET 0.000000 0.000000 0.000000
	CHANNELS 6 Xposition Yposition Zposition Zrotation Yrotation Xrotation
	JOINT lhip
	{
		OFFSET 0.058581 -0.082280 -0.017664
		CHANNELS 3 Zrotation Yrotation Xrotation
		JOINT lknee
		{
			OFFSET 0.043451 -0.386469 0.008037
			CHANNELS 3 Zrotation Yrotation Xrotation
			JOINT lankle
			{
				OFFSET -0.014790 -0.426874 -0.037428
				CHANNELS 3 Zrotation Yrotation Xrotation
				JOINT ltoe
				{
					OFFSET 0.041054 -0.060286 0.122042
					CHANNELS 3 Zrotation Yrotation Xrotation
					End Site
					{
						OFFSET 0.000000 0.000000 0.000000
					}
				}
			}
		}
	}
	JOINT rhip
	{
		OFFSET -0.060310 -0.090513 -0.013543
		CHANNELS 3 Zrotation Yrotation Xrotation
		JOINT rknee
		{
			OFFSET -0.043257 -0.383688 -0.004843
			CHANNELS 3 Zrotation Yrotation Xrotation
			JOINT rankle
			{
				OFFSET 0.019056 -0.420046 -0.034562
				CHANNELS 3 Zrotation Yrotation Xrotation
				JOINT rtoe
				{
					OFFSET -0.034840 -0.062106 0.130323
					CHANNELS 3 Zrotation Yrotation Xrotation
					End Site
					{
						OFFSET 0.000000 0.000000 0.000000
					}
				}
			}
		}
	}
	JOINT lowerback
	{
		OFFSET 0.004439 0.124404 -0.038385
		CHANNELS 3 Zrotation Yrotation Xrotation
		JOINT upperback
		{
			OFFSET 0.004488 0.137956 0.026820
			CHANNELS 3 Zrotation Yrotation Xrotation
			JOINT chest
			{
				OFFSET -0.002265 0.056032 0.002855
				CHANNELS 3 Zrotation Yrotation Xrotation
				JOINT lowerneck
				{
					OFFSET -0.013390 0.211636 -0.033468
					CHANNELS 3 Zrotation Yrotation Xrotation
					JOINT upperneck
					{
						OFFSET 0.010113 0.088937 0.050410
						CHANNELS 3 Zrotation Yrotation Xrotation
						End Site
						{
							OFFSET 0.000000 0.000000 0.000000
						}
					}
				}
				JOINT lclavicle
				{
					OFFSET 0.071702 0.114000 -0.018898
					CHANNELS 3 Zrotation Yrotation Xrotation
					JOINT lshoulder
					{
						OFFSET 0.122921 0.045205 -0.019046
						CHANNELS 3 Zrotation Yrotation Xrotation
						JOINT lelbow
						{
							OFFSET 0.255332 -0.015649 -0.022946
							CHANNELS 3 Zrotation Yrotation Xrotation
							JOINT lwrist
							{
								OFFSET 0.265709 0.012698 -0.007375
								CHANNELS 3 Zrotation Yrotation Xrotation
								End Site
								{
									OFFSET 0.000000 0.000000 0.000000
								}
							}
						}
					}
				}
				JOINT rclavicle
				{
					OFFSET -0.082954 0.112472 -0.023707
					CHANNELS 3 Zrotation Yrotation Xrotation
					JOINT rshoulder
					{
						OFFSET -0.113228 0.046853 -0.008472
						CHANNELS 3 Zrotation Yrotation Xrotation
						JOINT relbow
						{
							OFFSET -0.260127 -0.014369 -0.031269
							CHANNELS 3 Zrotation Yrotation Xrotation
							JOINT rwrist
							{
								OFFSET -0.269108 0.006794 -0.006027
								CHANNELS 3 Zrotation Yrotation Xrotation
								End Site
								{
									OFFSET 0.000000 0.000000 0.000000
								}
							}
						}
					}
				}
			}
		}
	}
}
MOTION
Frames: 17
Frame Time: 0.033333
0.167456 0.192186 0.229309 -163.740858 8.706374 32.830538 10.284138 16.317465 -66.829681 -13.458983 7.237000 64.476879 -7.129557 -0.997683 15.631124 0.000000 -0.000000 0.000000 -8.477086 -24.552449 -60.714118 -5.375257 -22.679493 77.718508 13.412793 2.709735 14.549437 0.000000 -0.000000 0.000000 2.076568 -5.314409 76.024281 -1.389835 -5.084210 -8.746366 3.706510 -4.974889 10.919938 -10.697454 -0.319833 19.161594 13.365990 10.859799 -2.308049 -12.555810 1.688539 1.018274 -39.946498 8.149768 2.713074 -37.193106 -71.137830 34.533366 9.768460 6.139733 -29.033665 10.827472 0.219324 -0.282008 58.169476 -14.659125 4.775195 24.346647 65.841707 1.716598 -15.280466 3.430640 -18.865426 
0.168697 0.200129 0.231425 -165.139079 9.080871 35.011392 10.785916 18.536823 -69.543149 -12.784748 7.158091 64.770866 -7.758496 -1.229564 17.095234 0.000000 -0.000000 0.000000 -6.019472 -24.610621 -63.641745 -7.082068 -22.994268 79.006363 12.922904 3.335796 15.806204 0.000000 -0.000000 0.000000 6.056042 -3.491839 76.229293 -0.024037 -6.523906 -9.520249 3.830943 -5.581566 10.036387 -11.845737 -0.503687 20.251379 14.117597 10.980021 -4.940261 -11.203174 -0.073268 1.973897 -42.361229 7.552416 3.183893 -36.112935 -69.517299 35.267205 12.151592 7.919853 -31.819924 8.775532 1.177017 0.004021 61.684431 -13.348353 3.065913 20.263229 63.327716 1.049354 -21.424671 1.935939 -15.677222 
0.166405 0.207712 0.232850 -164.745163 8.992999 37.264371 10.552119 18.856762 -71.773954 -12.180472 8.381039 65.067990 -7.276009 -1.153139 18.052896 0.000000 -0.000000 0.000000 -6.089139 -25.336435 -66.032183 -7.447007 -23.650585 79.825767 13.333551 4.155419 16.664312 0.000000 -0.000000 0.000000 5.729291 -3.597222 75.939077 0.012817 -6.304372 -10.127035 4.026627 -5.490631 9.879825 -11.913667 -0.449584 19.510623 14.467025 10.351615 -5.337033 -8.147308 -1.517521 2.625914 -45.660238 7.434546 3.925357 -34.644930 -66.888523 35.969025 14.209078 8.751332 -31.959773 6.175911 2.272239 0.072158 65.252299 -11.375596 2.334326 16.061567 59.509909 -3.731600 -22.647198 0.707285 -16.366503 
0.164604 0.214791 0.236102 -164.440671 8.809940 39.330976 10.233397 19.403099 -73.463419 -11.748240 9.542577 65.095171 -6.984307 -1.174406 18.971360 0.000000 -0.000000 0.000000 -6.044309 -25.724963 -68.211165 -7.513357 -24.069538 80.546594 13.747070 4.681123 17.015105 0.000000 -0.000000 0.000000 5.737291 -3.899094 76.066738 -0.148983 -6.164486 -11.555293 3.947524 -5.538589 10.123695 -11.744314 -0.216527 18.020881 14.558139 9.323032 -4.987334 -5.300750 -2.935084 2.909245 -48.939128 7.029072 4.174993 -33.094700 -62.707605 36.885259 17.300888 7.718434 -29.382843 3.715286 3.678314 -0.491340 67.937345 -10.027871 2.405434 15.655512 53.924153 -2.789175 -26.541457 1.564147 -12.487795 
0.163778 0.220752 0.241982 -164.282317 8.913661 40.960624 9.929355 19.888936 -74.529141 -12.145931 9.881569 64.963796 -6.153022 -1.537558 19.194089 0.000000 -0.000000 0.000000 -5.667143 -25.928201 -69.761738 -7.473767 -24.124713 81.056265 13.589549 4.968416 16.841925 0.000000 -0.000000 0.000000 5.575063 -4.021749 76.277004 0.063501 -5.832695 -12.659602 4.136253 -5.493845 10.123290 -11.871562 -0.629553 17.217665 14.618337 9.127679 -5.000134 -4.796407 -3.367748 3.063224 -50.634723 6.576003 4.318229 -31.119893 -60.468842 35.879032 19.211005 7.991858 -28.678276 2.731920 4.042736 -0.594245 68.832510 -9.136001 2.230507 15.416273 50.005382 -1.866299 -29.243688 1.840953 -8.363171 
0.159997 0.226441 0.246170 -162.689547 8.893959 42.944161 9.648507 18.879530 -75.769811 -11.659525 12.017339 64.974711 -6.921628 -2.171760 20.048967 0.000000 -0.000000 0.000000 -7.625929 -27.230769 -71.220738 -7.856825 -24.949773 82.718746 13.911044 5.589469 16.407563 0.000000 -0.000000 0.000000 5.662668 -5.226220 75.340215 0.083683 -6.236138 -13.413006 3.491975 -5.693908 9.866920 -11.262808 -0.885326 15.637846 14.134596 8.451758 -4.831613 -4.589772 -3.303393 3.311325 -52.286101 5.962182 3.944853 -27.240179 -57.791752 33.725752 18.714546 6.403643 -28.003480 3.093628 3.480201 -0.314235 69.717871 -7.983359 1.789635 12.755513 46.732568 -4.591592 -27.521434 3.195914 -9.822502 
0.156930 0.236171 0.254091 -162.196297 8.763815 42.573645 9.735662 19.382193 -75.281607 -12.177037 12.408314 66.505828 -7.943388 -2.499831 18.532199 0.000000 -0.000000 0.000000 -9.021204 -27.489583 -70.960168 -8.229312 -24.178131 85.188680 13.896384 5.820827 15.079577 0.000000 -0.000000 0.000000 5.056990 -5.338023 74.319242 0.779667 -6.217823 -11.602357 3.440573 -5.723624 9.583616 -11.154666 -1.162854 14.975818 13.331099 8.141167 -6.102419 -5.786378 -3.856473 3.696728 -54.016745 5.174492 3.167299 -22.270703 -54.228958 31.144992 19.761942 5.241909 -26.003614 3.335785 3.337754 -0.572147 70.096678 -5.952290 0.442117 10.720641 41.889316 -5.376572 -25.648125 3.797987 -7.816256 
0.155102 0.242000 0.262179 -162.000578 8.399396 41.692408 9.970187 19.682022 -74.353249 -12.484270 12.685824 67.887146 -7.682362 -2.640396 16.502740 0.000000 -0.000000 0.000000 -9.931898 -27.382149 -69.956519 -7.614017 -23.578657 85.972084 13.821222 5.895804 14.252957 0.000000 -0.000000 0.000000 5.026939 -5.273346 74.044782 0.816888 -6.375440 -10.657629 3.190743 -5.728460 9.372549 -10.961266 -1.412630 14.925577 13.289718 7.614985 -5.892376 -6.480128 -4.584762 3.847305 -54.192235 4.909262 3.184353 -20.096801 -52.521800 29.710304 20.672301 4.757460 -25.242057 3.965837 3.927427 -0.506682 70.013831 -5.675543 0.084729 9.742677 40.135151 -6.435536 -25.725589 4.255859 -7.784420 
0.151240 0.252904 0.275605 -161.761790 7.361869 39.472434 10.564840 20.243312 -72.101669 -13.370537 12.725088 71.550886 -6.309549 -3.350525 10.991487 0.000000 -0.000000 0.000000 -11.828585 -27.134890 -67.318674 -6.274954 -22.387503 87.952636 13.051617 6.638523 11.608878 0.000000 -0.000000 0.000000 5.037289 -5.088872 73.788810 0.475333 -6.778693 -9.486057 2.611211 -5.600807 8.660656 -10.987782 -1.606819 16.505225 13.250663 6.741918 -5.475404 -8.503709 -5.842715 3.944686 -53.224651 4.586935 2.827596 -16.880213 -48.879368 26.885573 18.600796 3.863237 -24.711420 5.965455 5.287492 0.127492 69.598287 -5.441298 -1.033821 7.774730 35.793996 -8.850907 -26.019286 5.310739 -5.441682 
0.147403 0.265155 0.290826 -161.675156 6.133420 36.679209 11.537649 20.838344 -69.587645 -15.024036 12.587419 76.344772 -4.803195 -4.585018 5.581859 0.000000 -0.000000 0.000000 -13.410999 -27.125761 -64.043885 -4.741310 -20.939390 90.166883 11.957020 7.102011 8.599761 0.000000 -0.000000 0.000000 5.082135 -4.701268 73.824637 -0.260705 -6.861799 -8.908548 2.002996 -5.452503 8.057349 -11.087708 -2.174547 18.147724 13.644858 5.444122 -4.001657 -10.586408 -7.227480 4.278035 -52.192300 4.127224 2.273943 -13.567814 -44.494218 24.432774 15.276705 2.823779 -24.306930 8.052314 6.042112 0.768185 69.094423 -5.127927 -2.974320 6.257261 30.482580 -9.990536 -24.194548 6.240101 -4.079061 
0.143410 0.276627 0.305076 -161.453530 5.462332 33.862075 12.289688 20.815245 -68.368788 -15.632417 12.201663 82.767936 -4.703281 -6.038206 3.908032 0.000000 -0.000000 0.000000 -15.117287 -27.681393 -60.391919 -4.406917 -19.726299 92.766727 11.549255 8.846270 5.992696 0.000000 -0.000000 0.000000 5.637502 -5.102073 74.929392 -1.169451 -7.547761 -9.771256 1.046187 -5.420767 7.727718 -10.697602 -2.136854 19.125934 13.758460 4.718706 -2.045009 -11.654208 -7.180774 4.266793 -52.327601 4.763879 1.681515 -11.371932 -41.513669 24.529187 13.558618 2.002664 -23.916815 9.511145 6.606505 1.027740 69.258348 -5.257415 -4.361168 4.872017 25.748160 -10.507349 -21.920930 7.235114 -2.667677 
0.142998 0.286173 0.316259 -162.304757 4.181707 31.795123 14.015091 21.636352 -67.429360 -16.119293 12.165867 88.456414 -5.306803 -6.515402 3.014056 0.000000 -0.000000 0.000000 -15.249248 -26.716883 -58.295932 -3.507895 -18.832798 93.804882 10.636464 9.061540 4.366742 0.000000 -0.000000 0.000000 4.671475 -3.568930 74.077222 -1.310348 -6.890275 -7.710567 0.991403 -4.995083 7.383190 -9.983833 -1.790478 19.625973 13.757457 3.442333 -1.142913 -13.214147 -7.502981 4.452395 -52.740386 4.596380 1.138311 -7.975745 -39.114879 22.509679 13.075599 1.604574 -22.776523 11.388280 7.341903 1.526748 68.530817 -4.743943 -5.401565 3.395882 22.863514 -11.040639 -20.973762 6.930455 -1.909492 
0.137249 0.301021 0.329576 -162.603129 3.463851 28.516380 15.809838 19.967619 -66.573587 -16.395995 12.023784 99.681866 -3.977239 -7.181347 -1.420699 0.000000 -0.000000 0.000000 -16.671394 -27.451417 -53.966136 -2.467377 -17.569267 96.245288 9.804942 11.536478 0.872376 0.000000 -0.000000 0.000000 4.905801 -3.879543 73.844988 -2.068658 -6.943981 -7.476952 -0.029901 -4.676954 7.564459 -9.572767 -1.648155 20.930104 13.303201 2.353114 0.609737 -15.117271 -7.452252 4.784047 -53.456427 5.004519 0.253064 -3.565420 -35.540140 20.387748 11.986375 0.583887 -21.002060 13.508023 7.755211 2.157975 68.305096 -4.383730 -7.504966 1.491331 17.166405 -11.613131 -21.032776 8.654542 0.114901 
0.136035 0.315832 0.339374 -163.445191 1.634305 26.061366 17.791934 19.861989 -65.542671 -16.651995 11.964217 109.912039 -4.064228 -8.320155 -3.972563 0.000000 -0.000000 0.000000 -17.100302 -26.896214 -51.616654 -1.814227 -16.270368 98.248094 9.116303 12.871995 -1.224520 0.000000 -0.000000 0.000000 4.591410 -3.336662 74.602468 -3.339995 -6.484958 -8.397551 -0.823277 -4.366426 6.961364 -9.037551 -1.204375 22.949531 13.466945 1.450379 2.246627 -15.586819 -6.833957 4.851535 -53.604087 6.182683 -0.308475 -2.075019 -32.723085 21.583930 10.126185 -0.390704 -21.213413 14.992895 7.932282 2.900687 69.107003 -4.956025 -8.902339 -0.319062 13.135970 -11.593230 -20.739179 9.406073 1.195716 
0.134084 0.330552 0.346461 -163.795128 0.128042 24.128171 19.897632 18.649838 -64.232966 -16.759881 12.494797 119.552100 -3.845934 -9.474230 -7.703719 0.000000 -0.000000 0.000000 -18.333321 -26.640109 -49.418286 -1.329339 -15.571468 99.979598 8.311107 13.066597 -3.322627 0.000000 -0.000000 0.000000 4.190083 -2.678662 73.422749 -3.974087 -6.281889 -6.848353 -1.489501 -3.916935 6.239408 -8.602953 -1.186826 24.548748 13.608865 1.108051 3.153454 -16.941366 -6.661302 5.262499 -53.591452 6.847571 -1.484321 0.609125 -30.718533 20.471586 7.444022 -1.759160 -20.093771 16.276384 8.186627 3.837531 69.682774 -4.573101 -10.501786 -2.430967 9.893368 -12.087246 -18.977750 9.976842 2.459117 
0.132548 0.346032 0.349547 -163.400604 -2.010414 22.968786 21.059757 17.447451 -62.562496 -16.510555 13.295971 128.174507 -2.984687 -9.793422 -10.838794 0.000000 -0.000000 0.000000 -20.039495 -26.183821 -49.038502 -0.541331 -14.906503 102.073355 7.754245 13.271897 -5.096012 0.000000 -0.000000 0.000000 3.091999 -1.763188 72.848547 -4.764406 -6.225291 -7.257960 -2.115953 -3.511966 6.348490 -7.662361 -1.855489 24.660885 13.757676 0.175571 4.142407 -17.196469 -5.888932 5.369979 -54.035814 7.441166 -2.844258 2.049884 -28.580674 19.723614 5.748813 -2.588795 -17.642281 16.730516 7.652556 4.052742 70.721652 -4.652312 -11.736653 -3.993428 6.952806 -12.362717 -16.591195 10.815245 4.345670 
0.135920 0.357606 0.352939 -164.788041 -4.371180 21.876515 23.146769 17.930612 -59.061274 -16.576622 12.358642 134.288338 -4.274318 -9.671570 -12.227218 0.000000 -0.000000 0.000000 -18.964758 -23.883213 -48.887811 -0.370033 -14.317369 103.146648 7.157103 13.218047 -6.309425 0.000000 -0.000000 0.000000 2.795089 -0.542650 73.513683 -5.652475 -5.389450 -7.157499 -2.590504 -3.329708 5.895553 -6.068976 -1.803815 23.490011 13.669173 -1.552423 4.845407 -17.764144 -5.296332 5.267266 -54.222960 7.534664 -3.943149 4.625558 -26.613282 18.975321 2.738542 -3.811510 -15.783423 17.462181 7.549476 3.894520 71.596374 -4.477131 -12.668354 -6.014893 4.454009 -12.116205 -15.456154 11.414687 5.595111 
